<svg width="3896" height="969" xmlns="http://www.w3.org/2000/svg" xmlns:xlink="http://www.w3.org/1999/xlink" xml:space="preserve" overflow="hidden"><g transform="translate(-266 -213)"><path d="M269.47 217.1 870.863 217.1 870.863 499.981 269.47 499.981Z" fill="#455A77" fill-rule="evenodd"/><path d="M870.863 217.1 1263.2 217.1 1263.2 499.981 870.863 499.981Z" fill="#455A77" fill-rule="evenodd"/><path d="M1263.2 217.1 1824.2 217.1 1824.2 499.981 1263.2 499.981Z" fill="#455A77" fill-rule="evenodd"/><path d="M1824.2 217.1 2556.5 217.1 2556.5 499.981 1824.2 499.981Z" fill="#455A77" fill-rule="evenodd"/><path d="M2556.5 217.1 3421.72 217.1 3421.72 499.981 2556.5 499.981Z" fill="#455A77" fill-rule="evenodd"/><path d="M3421.72 217.1 4154.33 217.1 4154.33 499.981 3421.72 499.981Z" fill="#455A77" fill-rule="evenodd"/><path d="M266.033 499.981 4157.77 499.981" stroke="#156082" stroke-width="4.58333" stroke-miterlimit="8" fill="none" fill-rule="evenodd"/><path d="M266.033 663.873 4157.77 663.873" stroke="#455A77" stroke-width="4.58333" stroke-linejoin="round" stroke-miterlimit="10" fill="none" fill-rule="evenodd"/><path d="M266.033 827.765 4157.77 827.765" stroke="#455A77" stroke-width="4.58333" stroke-linejoin="round" stroke-miterlimit="10" fill="none" fill-rule="evenodd"/><path d="M266.033 991.656 4157.77 991.656" stroke="#455A77" stroke-width="4.58333" stroke-linejoin="round" stroke-miterlimit="10" fill="none" fill-rule="evenodd"/><path d="M269.47 213.662 269.47 1158.99" stroke="#455A77" stroke-width="6.875" stroke-linejoin="round" stroke-miterlimit="10" fill="none" fill-rule="evenodd"/><path d="M4154.33 213.662 4154.33 1158.99" stroke="#455A77" stroke-width="6.875" stroke-linejoin="round" stroke-miterlimit="10" fill="none" fill-rule="evenodd"/><path d="M266.033 217.1 4157.77 217.1" stroke="#455A77" stroke-width="6.875" stroke-linejoin="round" stroke-miterlimit="10" fill="none" fill-rule="evenodd"/><path d="M266.033 1155.55 4157.77 1155.55" stroke="#455A77" stroke-width="6.875" stroke-linejoin="round" stroke-miterlimit="10" fill="none" fill-rule="evenodd"/><g><text fill="#FFFFFF" font-family="Rubik,Rubik_MSFontService,sans-serif" font-weight="400" font-size="83" transform="matrix(1 0 0 1 3462.9 338)">Scaling, </text></g><text fill="#FFFFFF" font-family="Rubik,Rubik_MSFontService,sans-serif" font-weight="400" font-size="83" transform="matrix(1 0 0 1 3784.87 338)">Cut</text><text fill="#FFFFFF" font-family="Rubik,Rubik_MSFontService,sans-serif" font-weight="400" font-size="83" transform="matrix(1 0 0 1 3922.37 338)">-</text><g><text fill="#FFFFFF" font-family="Rubik,Rubik_MSFontService,sans-serif" font-weight="400" font-size="83" transform="matrix(1 0 0 1 3962.48 338)">out,</text></g><text fill="#FFFFFF" font-family="Rubik,Rubik_MSFontService,sans-serif" font-weight="400" font-size="83" transform="matrix(1 0 0 1 3494.11 437)">N</text><text fill="#FFFFFF" font-family="Rubik,Rubik_MSFontService,sans-serif" font-weight="400" font-size="83" transform="matrix(1 0 0 1 3551.4 437)">oise, </text><text fill="#FFFFFF" font-family="Rubik,Rubik_MSFontService,sans-serif" font-weight="400" font-size="83" transform="matrix(1 0 0 1 3747.34 437)">Jittering</text><text fill="#FFFFFF" font-family="Rubik,Rubik_MSFontService,sans-serif" font-weight="400" font-size="83" transform="matrix(1 0 0 1 2682.88 338)">Local </text><text fill="#FFFFFF" font-family="Rubik,Rubik_MSFontService,sans-serif" font-weight="400" font-size="83" transform="matrix(1 0 0 1 2908.61 338)">inpainting</text><text fill="#FFFFFF" font-family="Rubik,Rubik_MSFontService,sans-serif" font-weight="400" font-size="83" transform="matrix(1 0 0 1 2609.55 437)">(different </text><text fill="#FFFFFF" font-family="Rubik,Rubik_MSFontService,sans-serif" font-weight="400" font-size="83" transform="matrix(1 0 0 1 2996.84 437)">category</text><g><text fill="#FFFFFF" font-family="Rubik,Rubik_MSFontService,sans-serif" font-weight="400" font-size="83" transform="matrix(1 0 0 1 3340.59 437)">) </text></g><text fill="#FFFFFF" font-family="Rubik,Rubik_MSFontService,sans-serif" font-weight="400" font-size="83" transform="matrix(1 0 0 1 1884.12 338)">Local </text><text fill="#FFFFFF" font-family="Rubik,Rubik_MSFontService,sans-serif" font-weight="400" font-size="83" transform="matrix(1 0 0 1 2109.85 338)">inpainting</text><text fill="#FFFFFF" font-family="Rubik,Rubik_MSFontService,sans-serif" font-weight="400" font-size="83" transform="matrix(1 0 0 1 1877.25 437)">(same </text><text fill="#FFFFFF" font-family="Rubik,Rubik_MSFontService,sans-serif" font-weight="400" font-size="83" transform="matrix(1 0 0 1 2131.62 437)">category</text><g><text fill="#FFFFFF" font-family="Rubik,Rubik_MSFontService,sans-serif" font-weight="400" font-size="83" transform="matrix(1 0 0 1 2475.37 437)">) </text></g><text fill="#FFFFFF" font-family="Rubik,Rubik_MSFontService,sans-serif" font-weight="400" font-size="83" transform="matrix(1 0 0 1 1449.16 338)">Self</text><text fill="#FFFFFF" font-family="Rubik,Rubik_MSFontService,sans-serif" font-weight="400" font-size="83" transform="matrix(1 0 0 1 1598.12 338)">-</text><text fill="#FFFFFF" font-family="Rubik,Rubik_MSFontService,sans-serif" font-weight="400" font-size="83" transform="matrix(1 0 0 1 1314.53 437)">conditioned</text><g><text fill="#FFFFFF" font-family="Rubik,Rubik_MSFontService,sans-serif" font-weight="400" font-size="83" transform="matrix(1 0 0 1 904.035 338)">Blurring</text></g><g><text fill="#FFFFFF" font-family="Rubik,Rubik_MSFontService,sans-serif" font-weight="400" font-size="83" transform="matrix(1 0 0 1 1209.4 338)">, </text></g><text fill="#FFFFFF" font-family="Rubik,Rubik_MSFontService,sans-serif" font-weight="400" font-size="83" transform="matrix(1 0 0 1 962.174 437)">JPEG</text><text fill="#455A77" font-family="Segoe UI Symbol,Segoe UI Symbol_MSFontService,sans-serif" font-weight="400" font-size="83" transform="matrix(1 0 0 1 1512.76 611)">✓</text><text fill="#455A77" font-family="Segoe UI Symbol,Segoe UI Symbol_MSFontService,sans-serif" font-weight="400" font-size="83" transform="matrix(1 0 0 1 1036.09 611)">✓</text><g><text font-family="Rubik,Rubik_MSFontService,sans-serif" font-style="italic" font-weight="400" font-size="83" transform="matrix(1 0 0 1 302.47 610)">base</text></g><text fill="#455A77" font-family="Segoe UI Symbol,Segoe UI Symbol_MSFontService,sans-serif" font-weight="400" font-size="83" transform="matrix(1 0 0 1 2159.41 775)">✓</text><text fill="#455A77" font-family="Segoe UI Symbol,Segoe UI Symbol_MSFontService,sans-serif" font-weight="400" font-size="83" transform="matrix(1 0 0 1 1512.76 775)">✓</text><text fill="#455A77" font-family="Segoe UI Symbol,Segoe UI Symbol_MSFontService,sans-serif" font-weight="400" font-size="83" transform="matrix(1 0 0 1 1036.09 775)">✓</text><g><text font-family="Rubik,Rubik_MSFontService,sans-serif" font-style="italic" font-weight="400" font-size="83" transform="matrix(1 0 0 1 302.47 774)">inpainted</text></g><text fill="#455A77" font-family="Segoe UI Symbol,Segoe UI Symbol_MSFontService,sans-serif" font-weight="400" font-size="83" transform="matrix(1 0 0 1 2958.17 939)">✓</text><text fill="#455A77" font-family="Segoe UI Symbol,Segoe UI Symbol_MSFontService,sans-serif" font-weight="400" font-size="83" transform="matrix(1 0 0 1 2159.41 939)">✓</text><text fill="#455A77" font-family="Segoe UI Symbol,Segoe UI Symbol_MSFontService,sans-serif" font-weight="400" font-size="83" transform="matrix(1 0 0 1 1512.76 939)">✓</text><text fill="#455A77" font-family="Segoe UI Symbol,Segoe UI Symbol_MSFontService,sans-serif" font-weight="400" font-size="83" transform="matrix(1 0 0 1 1036.09 939)">✓</text><g><text font-family="Rubik,Rubik_MSFontService,sans-serif" font-style="italic" font-weight="400" font-size="83" transform="matrix(1 0 0 1 302.47 938)">inpainted</text></g><text font-family="Rubik,Rubik_MSFontService,sans-serif" font-style="italic" font-weight="400" font-size="83" transform="matrix(1 0 0 1 688.043 938)">+</text><text fill="#455A77" font-family="Segoe UI Symbol,Segoe UI Symbol_MSFontService,sans-serif" font-weight="700" font-size="92" transform="matrix(1 0 0 1 3753.65 1106)">✓</text><text fill="#455A77" font-family="Segoe UI Symbol,Segoe UI Symbol_MSFontService,sans-serif" font-weight="700" font-size="92" transform="matrix(1 0 0 1 2954.73 1106)">✓</text><text fill="#455A77" font-family="Segoe UI Symbol,Segoe UI Symbol_MSFontService,sans-serif" font-weight="700" font-size="92" transform="matrix(1 0 0 1 2155.97 1106)">✓</text><text fill="#455A77" font-family="Segoe UI Symbol,Segoe UI Symbol_MSFontService,sans-serif" font-weight="700" font-size="92" transform="matrix(1 0 0 1 1509.32 1106)">✓</text><text fill="#455A77" font-family="Segoe UI Symbol,Segoe UI Symbol_MSFontService,sans-serif" font-weight="700" font-size="92" transform="matrix(1 0 0 1 1032.65 1106)">✓</text><g><text font-family="Rubik,Rubik_MSFontService,sans-serif" font-style="italic" font-weight="700" font-size="83" transform="matrix(1 0 0 1 302.47 1102)">inpainted</text></g><g><text font-family="Rubik,Rubik_MSFontService,sans-serif" font-style="italic" font-weight="700" font-size="83" transform="matrix(1 0 0 1 721.272 1102)">++</text></g></g></svg>