<svg width="1736" height="443" xmlns="http://www.w3.org/2000/svg" xmlns:xlink="http://www.w3.org/1999/xlink" xml:space="preserve" overflow="hidden"><defs><clipPath id="clip0"><rect x="1907" y="1002" width="1736" height="443"/></clipPath></defs><g clip-path="url(#clip0)" transform="translate(-1907 -1002)"><rect x="1907" y="1002" width="1736" height="443" fill="#3D3D3D"/><g><g><g><g><path d="M112.364 210.484C168.704 210.618 215.085 166.215 217.403 109.922 218.709 81.4397 208.22 53.6778 188.407 33.1735 168.197 11.9785 140.144 0.0531705 110.86 0.208274 71.7966 0.208274 14.2668 0 2.31416 0 1.07502-0.0383422 0.0394158 0.935096 0.00107359 2.17423 0.000346661 2.19773-1.12438e-05 2.22123 1.62535e-11 2.24473L0 2.24473C0 30.7075 23.0735 53.7811 51.5363 53.7811L112.468 53.7811C129.78 54.2438 145.786 63.1009 155.372 77.5242 164.604 91.2305 166.481 108.607 160.394 123.969 153.515 141.975 137.118 154.6 117.952 156.645 116.092 156.84 114.223 156.936 112.352 156.934 83.8603 156.902 60.7852 133.786 60.8044 105.294 60.8044 98.6873 63.3386 90.796 67.8047 82.4881L12.1956 82.4881C11.1287 82.4902 10.2016 83.2215 9.95088 84.2584 7.64689 93.347 6.79939 102.744 7.44002 112.098 10.8979 166.451 55.3234 209.15 109.772 210.449 110.64 210.473 111.496 210.484 112.364 210.484Z" fill="#3B87F4" transform="matrix(1.00164 0 0 1 2253.24 1121)"/><path d="M337.241 210.716C280.854 210.86 234.449 166.391 232.191 110.05 230.888 81.5674 241.376 53.8059 261.188 33.3006 281.406 12.1368 309.444 0.230669 338.712 0.381838 377.775 0.381835 435.305 0.208274 447.327 0.173562 448.565 0.172968 449.572 1.17749 449.572 2.41722 449.572 2.44072 449.572 2.46423 449.572 2.48772L449.572 2.48772C449.572 30.9505 426.497 54.0241 398.036 54.0241L337.138 54.0241C319.833 54.4765 303.83 63.3152 294.233 77.7211 284.994 91.4281 283.113 108.81 289.201 124.178 296.086 142.177 312.481 154.795 331.642 156.842 333.503 157.04 335.372 157.141 337.241 157.143 365.691 157.092 388.741 134.034 388.777 105.583 388.777 98.9649 386.244 91.0851 381.779 82.7657L437.376 82.7657C438.447 82.7276 439.406 83.4317 439.69 84.4668 441.992 93.5554 442.841 102.952 442.2 112.306 438.755 166.661 394.329 209.363 339.881 210.658Z" fill="#FFFFFF" transform="matrix(1.00164 0 0 1 2253.24 1121)"/><path d="M150.42 105.294C129.473 105.435 112.378 88.5684 112.237 67.6214 112.235 67.451 112.235 67.2807 112.237 67.1105 112.237 88.1988 95.1411 105.294 74.0529 105.294 95.1411 105.294 112.237 122.39 112.237 143.478 112.237 122.39 129.333 105.294 150.42 105.294Z" fill="#E5BF88" transform="matrix(1.00164 0 0 1 2253.24 1121)"/><path d="M224.797 154.516C221.908 161.024 218.466 167.272 214.511 173.191 212.428 176.304 210.311 179.162 208.205 181.8 204.824 186.018 201.171 190.011 197.27 193.753 201.171 197.495 204.824 201.488 208.205 205.705 210.311 208.343 212.428 211.213 214.511 214.326 218.468 220.244 221.91 226.492 224.797 233.001L224.797 154.516Z" fill="#E5BF88" transform="matrix(1.00164 0 0 1 2253.24 1121)"/><path d="M241.39 181.8C239.284 179.162 237.166 176.304 235.084 173.191 231.129 167.272 227.686 161.024 224.797 154.516L224.797 233.001C227.684 226.492 231.126 220.244 235.084 214.326 237.166 211.213 239.284 208.343 241.39 205.705 244.771 201.488 248.424 197.495 252.324 193.753 248.424 190.011 244.771 186.018 241.39 181.8Z" fill="#CE9867" transform="matrix(1.00164 0 0 1 2253.24 1121)"/><path d="M655.994 209.952C627.472 209.952 607.083 198.774 595.432 176.709L586.245 159.954 551.025 159.954 551.025 207.881C551.025 209.025 550.097 209.952 548.954 209.952L498.399 209.952C497.256 209.952 496.328 209.025 496.328 207.881L496.328 2.12902C496.328 0.985148 497.256 0.057854 498.399 0.057854L606.101 0.057854C621.271 0.057854 634.772 3.41337 646.251 10.0203 657.773 16.6445 667.176 26.4131 673.351 38.1835 679.69 50.0898 682.907 64.1137 682.907 79.8963 682.907 95.6789 679.657 109.714 673.246 121.62 667.037 133.367 657.673 143.144 646.205 149.853L642.075 152.295C641.37 152.71 641.135 153.618 641.55 154.323 641.56 154.337 641.568 154.352 641.576 154.366L674.658 206.666C675.309 207.605 675.076 208.897 674.135 209.548 673.789 209.789 673.377 209.917 672.956 209.917ZM551.025 106.555 604.919 106.555C611.551 106.555 616.421 104.415 620.274 99.8326 624.37 94.9499 626.418 88.4354 626.523 79.9309 626.626 71.4265 624.498 65.074 620.379 60.2607 616.467 55.6323 611.561 53.5147 604.919 53.5147L551.025 53.5147Z" fill="#FFFFFF" transform="matrix(1.00164 0 0 1 2253.24 1121)"/><path d="M789.684 0.0925662C790.827 0.0925662 791.755 1.01986 791.755 2.16374L791.755 207.881C791.755 209.025 790.827 209.952 789.684 209.952L738.286 209.952C737.143 209.952 736.215 209.025 736.215 207.881L736.215 2.16374C736.215 1.01987 737.143 0.0925706 738.286 0.0925706Z" fill="#FFFFFF" transform="matrix(1.00164 0 0 1 2253.24 1121)"/><path d="M854.063 207.869 854.063 84.4668C854.063 83.3164 854.996 82.3841 856.144 82.3841L906.686 82.3841C907.837 82.3841 908.77 83.3164 908.77 84.4668L908.77 106.555 959.276 106.555C967.04 106.555 973.079 104.021 977.788 98.8029 981.954 94.1745 984.894 90.1016 984.894 80.2895 984.894 70.8941 982.579 66.532 977.87 61.3135 973.161 56.095 967.214 53.6652 959.358 53.6652L898.516 53.6652C870.214 53.7357 847.213 30.8487 847.144 2.54584 847.144 2.53804 847.144 2.53023 847.144 2.52243L847.144 2.17531C847.144 1.03143 848.069 0.104137 849.215 0.104137L958.061 0.231416C974.446 0.231416 988.967 3.70264 1001.25 10.5757 1013.53 17.3761 1023.64 27.5079 1030.41 39.8036 1037.78 53.0636 1040.83 64.8312 1040.83 80.4169 1040.83 95.3895 1037.76 107.03 1030.22 120.556 1023.44 132.871 1013.29 142.992 1000.95 149.726 988.618 156.518 974.133 159.954 957.886 159.954L908.549 159.954 908.549 207.869C908.549 209.019 907.616 209.952 906.465 209.952L856.144 209.952C854.996 209.952 854.063 209.019 854.063 207.869Z" fill="#FFFFFF" transform="matrix(1.00164 0 0 1 2253.24 1121)"/></g></g></g></g></g></svg>